<?xml version="1.0" encoding="utf-8"?>
<!-- Generator: Adobe Illustrator 25.2.1, SVG Export Plug-In . SVG Version: 6.00 Build 0)  -->
<svg version="1.1" id="Layer_1" xmlns="http://www.w3.org/2000/svg" xmlns:xlink="http://www.w3.org/1999/xlink" x="0px" y="0px"
	 viewBox="0 0 64 64" style="enable-background:new 0 0 64 64;" xml:space="preserve">
<style type="text/css">
	.st0{fill:#CACACB;}
</style>
<g>
	<path class="st0" d="M31.3,27.5c-3.2,0.4-4.9,2.4-4.6,5.4c0.2,2.6,2.4,3.8,4.6,2.6c0.7-0.4,1.2-0.9,1.7-1.6c0.9-1.4,1.1-3,1.1-4.6
		c0-0.5,0-1.1,0-1.6c0-0.3-0.1-0.4-0.4-0.4C32.9,27.3,32.1,27.4,31.3,27.5z"/>
	<path class="st0" d="M58.9,5.1C53.8,0,46,0,32,0S10.2,0,5.1,5.1C0,10.2,0,18,0,32s0,21.8,5.1,26.9C10.2,64,18,64,32,64
		s21.8,0,26.9-5.1C64,53.8,64,46,64,32S64,10.2,58.9,5.1z M34,20.8c-0.2-2.2-1.8-3.4-4-3.1c-1.7,0.3-2.9,1.2-3.4,3
		c-0.2,0.8-0.5,1-1.4,0.9c-1.4-0.2-2.7-0.3-4.1-0.5c-0.8-0.1-1.1-0.5-0.9-1.2c0.6-3,2.4-5.1,5.2-6.3c3.6-1.5,7.3-1.6,10.9-0.1
		c2.8,1.1,4.3,3.1,4.6,6.2c0.2,2.1,0,4.3,0.1,6.1c0,2,0,3.7,0,5.4c0,1.6,0.4,3,1.5,4.3c0.1,0.2,0.3,0.3,0.4,0.5
		c0.4,0.6,0.4,1-0.2,1.5c-1.1,1-2.3,2-3.4,3c-0.6,0.5-1.1,0.5-1.7,0c-0.9-0.7-1.6-1.6-2.2-2.6c-0.2-0.4-0.4-0.4-0.7-0.1
		c-0.4,0.4-0.9,0.9-1.4,1.2c-2.8,2.2-6,2.5-9.3,1.5c-2.6-0.8-4-2.8-4.4-5.5c-0.6-3.7,0.6-7.3,4-9.2c1.4-0.8,2.9-1.3,4.5-1.6
		c1.8-0.3,3.5-0.6,5.3-0.6c0.5,0,0.8-0.1,0.7-0.8C34,22.1,34.1,21.4,34,20.8z M46.7,46c-0.3,0.3-0.5,0.5-0.8,0.7
		c-4.2,2.9-10.2,4.8-13.3,4.9c-6,0-9.7-1.2-13.1-3.3c-2.3-1.4-4.4-3.1-6.4-4.9c-0.6-0.5-0.7-1-0.4-1.4c0.3-0.4,0.8-0.5,1.5-0.2
		c2.3,1.3,4.6,2.5,7,3.6c6.1,2.8,12.4,2.7,18.7,0.9c1.8-0.5,3.6-1.2,5.3-1.9c0.3-0.1,0.5-0.2,0.8-0.2c0.5,0,0.9,0.2,1.1,0.7
		C47.2,45.3,47.1,45.7,46.7,46z M51.2,44c-0.4,1.5-1,2.8-2.1,3.9c-0.3,0.3-0.7,0.5-1.2,0.4c-0.5-0.2-0.6-0.6-0.4-1.2
		c0.3-1,0.7-2,1-3.1c0.2-1,0.1-1.1-0.9-1.2c-1,0-2.1,0.1-3.1,0.3c-0.5,0.1-1,0-1.2-0.5c-0.2-0.5,0.1-0.9,0.5-1.2
		c1.1-0.9,2.7-1.3,4.7-1.3c0.7,0,1.3,0,2,0.2c0.7,0.2,1,0.6,1.1,1.2C51.6,42.4,51.5,43.2,51.2,44z"/>
</g>
</svg>
