<?xml version="1.0" encoding="utf-8"?>
<!-- Generator: Adobe Illustrator 25.2.1, SVG Export Plug-In . SVG Version: 6.00 Build 0)  -->
<svg version="1.1" id="Layer_1" xmlns="http://www.w3.org/2000/svg" xmlns:xlink="http://www.w3.org/1999/xlink" x="0px" y="0px"
	 viewBox="0 0 64 64" style="enable-background:new 0 0 64 64;" xml:space="preserve">
<style type="text/css">
	.st0{fill:#CACACB;}
</style>
<path class="st0" d="M58.9,5.1C53.8,0,46,0,32,0C18,0,10.2,0,5.1,5.1C0,10.2,0,18,0,32c0,14,0,21.8,5.1,26.9C10.2,64,18,64,32,64
	c14,0,21.8,0,26.9-5.1C64,53.8,64,46,64,32C64,18,64,10.2,58.9,5.1z M40.5,8.8c0.1,1.6-0.1,3.2-0.8,4.6c-1,2.1-2.4,3.8-4.6,4.8
	c-1,0.5-2.1,0.6-3.2,0.5C31.4,14.2,35.3,9.3,40.5,8.8z M49.4,40.6c-1.1,3.3-3,6.2-5.2,8.9c-1.5,1.8-3.5,2.6-5.9,2
	c-0.8-0.2-1.7-0.5-2.5-0.9c-1.7-0.7-3.5-0.8-5.3-0.3c-1.4,0.4-2.8,0.9-4.2,1.4c-0.4,0-0.8,0-1.3,0c-1.3-0.4-2.5-1.1-3.4-2.1
	c-1.7-1.9-3.2-4-4.3-6.2c-1.4-2.7-2.2-5.6-2.6-8.6c-0.3-2.2-0.3-4.3,0.2-6.5c0.8-3.3,2.5-6,5.6-7.7c2-1.1,4.1-1.6,6.3-1
	c1.3,0.3,2.5,0.8,3.7,1.3c1.1,0.4,2.2,0.5,3.3,0c0.7-0.3,1.5-0.6,2.2-0.8c3.6-1.3,7-0.9,10.2,1.2c0.9,0.6,1.6,1.4,2.2,2.3
	c-3.2,2-4.8,4.9-4.6,8.8c0.3,3.9,2.3,6.5,5.7,8.1C49.5,40.4,49.4,40.5,49.4,40.6z"/>
</svg>
