<?xml version="1.0" encoding="utf-8"?>
<!-- Generator: Adobe Illustrator 25.2.1, SVG Export Plug-In . SVG Version: 6.00 Build 0)  -->
<svg version="1.1" id="Layer_1" xmlns="http://www.w3.org/2000/svg" xmlns:xlink="http://www.w3.org/1999/xlink" x="0px" y="0px"
	 viewBox="0 0 64 64" style="enable-background:new 0 0 64 64;" xml:space="preserve">
<style type="text/css">
	.st0{fill:#CACACB;}
</style>
<path class="st0" d="M58.9,5.1C53.8,0,46,0,32,0S10.2,0,5.1,5.1S0,18,0,32s0,21.8,5.1,26.9C10.2,64,18,64,32,64s21.8,0,26.9-5.1
	C64,53.8,64,46,64,32S64,10.2,58.9,5.1z M51,42.7c0,2.1-1.5,3.6-3.5,3.6c-10.3,0-20.7,0-31,0c-1.9,0-3.1-1-3.5-2.9c0,0,0,0-0.1,0
	c0-0.1,0-0.2,0-0.4c0-5.7,0-11.4,0-17.2c5.2,3.5,10.4,6.9,15.7,10.4c2.2,1.5,4.5,1.5,6.7,0c5.2-3.4,10.3-6.9,15.4-10.3
	c0.1-0.1,0.2-0.1,0.3-0.1c0,0.1,0,0.2,0,0.3C51,31.6,51,37.1,51,42.7z M49.2,24.3c-5,3.3-10,6.7-15,10c-1.5,1-2.9,1-4.4,0
	c-5.1-3.4-10.1-6.8-15.2-10.1c-0.9-0.6-1.5-1.5-1.6-2.6c0-0.3,0-0.5,0-0.8c0.6-2.3,2.2-3,4.4-3c9.9,0,19.9,0,29.8,0
	c1.8,0,3.1,0.8,3.6,2.5C51.4,22,50.7,23.3,49.2,24.3z"/>
</svg>
