<?xml version="1.0" encoding="utf-8"?>
<!-- Generator: Adobe Illustrator 25.2.1, SVG Export Plug-In . SVG Version: 6.00 Build 0)  -->
<svg version="1.1" id="Layer_1" xmlns="http://www.w3.org/2000/svg" xmlns:xlink="http://www.w3.org/1999/xlink" x="0px" y="0px"
	 viewBox="0 0 64 64" style="enable-background:new 0 0 64 64;" xml:space="preserve">
<style type="text/css">
	.st0{fill:#CACACB;}
</style>
<g>
	<path class="st0" d="M32,21C25.9,21.1,21,26,21,32c0,6,5,11,11,11C38.1,42.9,43,38,43,32C43,26,38,21,32,21z M32,40.6
		c-4.7,0-8.6-3.9-8.6-8.6c0-4.8,3.9-8.6,8.6-8.6c4.7,0,8.6,3.9,8.6,8.6C40.6,36.8,36.7,40.6,32,40.6z"/>
	<path class="st0" d="M43.6,17.1c-1.8,0-3.3,1.5-3.3,3.3c0,1.8,1.5,3.3,3.3,3.3c1.8,0,3.3-1.5,3.3-3.3
		C46.9,18.6,45.4,17.1,43.6,17.1z M43.6,21.3c-0.5,0-1-0.5-1-1c0-0.5,0.4-0.9,1-0.9c0.5,0,1,0.4,1,1C44.6,20.9,44.1,21.3,43.6,21.3z
		"/>
	<path class="st0" d="M58.9,5.1C53.8,0,46,0,32,0S10.2,0,5.1,5.1C0,10.2,0,18,0,32s0,21.8,5.1,26.9C10.2,64,18,64,32,64
		s21.8,0,26.9-5.1C64,53.8,64,46,64,32S64,10.2,58.9,5.1z M52,40.9c0,0.7,0,1.5-0.2,2.2c-1,4.5-3.7,7.4-8.1,8.6
		c-0.6,0.2-1.2,0.2-1.8,0.3c-6.6,0-13.1,0-19.7,0c-0.4-0.1-0.8-0.1-1.2-0.2c-4.5-1-7.4-3.7-8.6-8.2c-0.2-0.6-0.2-1.2-0.3-1.8
		c0-6.6,0-13.1,0-19.7c0-0.1,0-0.3,0.1-0.4c0.1-0.7,0.2-1.4,0.5-2.1C14.1,15,18.1,12,23,12c6,0,12,0,18,0c1.9,0,3.7,0.4,5.3,1.4
		c3.7,2.2,5.6,5.4,5.7,9.8C52,29.1,52,35,52,40.9z"/>
</g>
</svg>
