<?xml version="1.0" encoding="utf-8"?>
<!-- Generator: Adobe Illustrator 25.2.1, SVG Export Plug-In . SVG Version: 6.00 Build 0)  -->
<svg version="1.1" id="Layer_1" xmlns="http://www.w3.org/2000/svg" xmlns:xlink="http://www.w3.org/1999/xlink" x="0px" y="0px"
	 viewBox="0 0 64 64" style="enable-background:new 0 0 64 64;" xml:space="preserve">
<style type="text/css">
	.st0{fill:#CACACB;}
</style>
<path class="st0" d="M58.9,5.1C53.8,0,46,0,32,0S10.2,0,5.1,5.1C0,10.2,0,18,0,32s0,21.8,5.1,26.9C10.2,64,18,64,32,64
	s21.8,0,26.9-5.1C64,53.8,64,46,64,32S64,10.2,58.9,5.1z M47.2,33.5c-1.5,3.4-4.1,5.8-7.6,7.2c-2,0.9-4.2,1.4-6.4,1.5
	c-1.7,0.1-3.4,0.1-5,0.1c-0.5,0-0.5,0-0.5,0.5c0,2.3,0,4.6,0,6.8c0,1.3-0.9,2-2.1,2c-1.7,0-3.5,0-5.2,0c-1.5,0-3,0-4.5,0
	c-0.6,0-0.6,0-0.6-0.6c0-6.4,0-12.8,0-19.1c0-6.4,0-12.7,0-19.1c0-0.1,0-0.2,0-0.4c0-0.2,0.1-0.3,0.3-0.3c0.1,0,0.2,0,0.3,0
	c5.7,0,11.4,0,17.2,0c2.5,0,4.9,0.4,7.2,1.3c2.8,1.1,5,2.8,6.5,5.4c0.9,1.6,1.4,3.2,1.7,5c0.1,0.8,0.2,1.6,0.2,2.4
	C48.6,28.9,48.2,31.2,47.2,33.5z"/>
</svg>
