<?xml version="1.0" encoding="utf-8"?>
<!-- Generator: Adobe Illustrator 25.2.1, SVG Export Plug-In . SVG Version: 6.00 Build 0)  -->
<svg version="1.1" id="Layer_1" xmlns="http://www.w3.org/2000/svg" xmlns:xlink="http://www.w3.org/1999/xlink" x="0px" y="0px"
	 viewBox="0 0 64 64" style="enable-background:new 0 0 64 64;" xml:space="preserve">
<style type="text/css">
	.st0{fill:#CACACB;}
</style>
<path class="st0" d="M58.9,5.1C53.8,0,46,0,32,0C18,0,10.2,0,5.1,5.1C0,10.2,0,18,0,32c0,14,0,21.8,5.1,26.9C10.2,64,18,64,32,64
	c14,0,21.8,0,26.9-5.1C64,53.8,64,46,64,32C64,18,64,10.2,58.9,5.1z M12.3,41.7c0,0.9-0.6,1.6-1.4,1.6c-0.8,0-1.4-0.6-1.4-1.6
	c0-2.7,0-5.4,0-8.1c0-0.9,0.6-1.6,1.4-1.6c0.8,0,1.4,0.6,1.4,1.5c0,1.4,0,2.7,0,4.1C12.3,39,12.3,40.3,12.3,41.7z M17.9,43.1
	c0,1.1-1,1.8-1.9,1.4c-0.6-0.2-0.9-0.7-0.9-1.3c0-0.6,0-1.2,0-1.8c0-4,0-8,0-11.9c0-0.2,0-0.4,0-0.6c0.1-0.7,0.8-1.2,1.5-1.1
	c0.7,0.1,1.3,0.6,1.3,1.4c0,1.1,0,2.2,0,3.3c0,1.3,0,2.5,0,3.8C17.9,38.6,17.9,40.8,17.9,43.1z M23.6,43.1c0,1.1-1,1.8-1.9,1.4
	c-0.6-0.2-0.9-0.7-0.9-1.3c0-0.6,0-1.1,0-1.7c0-4,0-8,0-12c0-0.2,0-0.4,0-0.6c0.1-0.7,0.8-1.2,1.5-1.1c0.7,0.1,1.3,0.6,1.3,1.4
	c0,1.1,0,2.1,0,3.2c0,1.3,0,2.6,0,3.9C23.6,38.5,23.6,40.8,23.6,43.1z M29.2,33.4c0,3.2,0,6.5,0,9.7c0,1.1-0.9,1.8-1.9,1.5
	c-0.6-0.2-0.9-0.6-0.9-1.2c0-0.1,0-0.3,0-0.4c0-6.3,0-12.7,0-19c0-0.2,0-0.4,0-0.6c0.1-0.7,0.8-1.2,1.5-1.1c0.7,0.1,1.2,0.6,1.3,1.4
	c0,1.2,0,2.3,0,3.5C29.2,29.1,29.2,31.3,29.2,33.4z M54.5,38.4c-0.2,0.7-0.4,1.5-0.7,2.2c-1.3,2.5-3.3,3.9-6.1,4
	c-4.7,0.1-9.5,0-14.2,0c-0.9,0-1.5-0.6-1.5-1.5c0-3.3,0-6.7,0-10c0-4,0-8.1,0-12.1c0-1.2,0.6-1.7,1.7-1.7c5.5,0.2,10.1,3.7,11.8,9
	c0.2,0.8,0.4,1.6,0.5,2.3c0.8,0,1.6-0.1,2.4,0c3.1,0.4,5.5,2.8,6,5.9c0,0.1,0.1,0.2,0.1,0.2C54.5,37.3,54.5,37.9,54.5,38.4z"/>
</svg>
