<?xml version="1.0" encoding="utf-8"?>
<!-- Generator: Adobe Illustrator 25.2.1, SVG Export Plug-In . SVG Version: 6.00 Build 0)  -->
<svg version="1.1" id="Layer_1" xmlns="http://www.w3.org/2000/svg" xmlns:xlink="http://www.w3.org/1999/xlink" x="0px" y="0px"
	 viewBox="0 0 64 64" style="enable-background:new 0 0 64 64;" xml:space="preserve">
<style type="text/css">
	.st0{fill:#CACACB;}
</style>
<path class="st0" d="M58.9,5.1C53.8,0,46,0,32,0C18,0,10.2,0,5.1,5.1C0,10.2,0,18,0,32c0,14,0,21.8,5.1,26.9C10.2,64,18,64,32,64
	c14,0,21.8,0,26.9-5.1C64,53.8,64,46,64,32C64,18,64,10.2,58.9,5.1z M46.3,45.4c-0.6,1.4-2.1,2.1-3.6,1.5c-2.7-1.1-5.4-1.9-8.3-2.4
	c-4-0.6-8.1-0.8-12.1-0.5c-1.9,0.1-3.7,0.3-5.6,0.4c-1.4,0.1-2.6-1-2.8-2.4c-0.2-1.3,0.6-2.6,1.8-3c0.5-0.2,1.1-0.2,1.7-0.3
	c1.4-0.1,2.8-0.3,4.2-0.3c1.4-0.1,2.7,0,4.1,0c5.7-0.1,11.3,0.5,16.7,2.3c0.9,0.3,1.7,0.6,2.5,1C46.3,42.5,46.9,44,46.3,45.4z
	 M49.6,35.3c-0.6,1.4-2.1,2.1-3.6,1.6c-2.2-0.7-4.4-1.6-6.7-2.2c-4.2-1-8.5-1.4-12.8-1.3c-3.2,0.1-6.4,0.3-9.7,0.6
	c-1.9,0.1-3.3-0.7-3.5-2.3C13,30,14.1,28.6,16,28.4c1.7-0.2,3.4-0.4,5.2-0.4c1.7-0.1,3.5,0,5.2,0c0-0.1,0-0.1,0-0.2
	c6.4,0.1,12.8,0.7,18.9,2.8c1,0.3,2,0.7,2.9,1.2C49.5,32.3,50.2,33.9,49.6,35.3z M51.8,24.7c-0.6,1.5-2.2,2.2-3.7,1.6
	c-2.7-1.1-5.4-2-8.2-2.6c-4.5-0.9-9-1.4-13.6-1.3c-3.6,0.1-7.2,0.4-10.8,0.6c-0.5,0-1.1,0.1-1.6-0.1c-1.2-0.3-2.1-1.5-2-2.8
	c0.1-1.3,0.9-2.4,2.2-2.6c1.4-0.2,2.9-0.4,4.3-0.5c1.3-0.1,2.6-0.2,3.9-0.2c1.3,0,2.5,0,3.8,0c6.1,0,12.1,0.4,18,2.1
	c2,0.6,4,1.4,6,2.2C51.7,21.7,52.4,23.3,51.8,24.7z"/>
</svg>
