<?xml version="1.0" encoding="utf-8"?>
<!-- Generator: Adobe Illustrator 25.2.1, SVG Export Plug-In . SVG Version: 6.00 Build 0)  -->
<svg version="1.1" id="Layer_1" xmlns="http://www.w3.org/2000/svg" xmlns:xlink="http://www.w3.org/1999/xlink" x="0px" y="0px"
	 viewBox="0 0 64 64" style="enable-background:new 0 0 64 64;" xml:space="preserve">
<style type="text/css">
	.st0{fill:#CACACB;}
</style>
<path class="st0" d="M58.9,5.1C53.8,0,46,0,32,0S10.2,0,5.1,5.1C0,10.2,0,18,0,32c0,14,0,21.8,5.1,26.9C10.2,64,18,64,32,64
	s21.8,0,26.9-5.1C64,53.8,64,46,64,32C64,18,64,10.2,58.9,5.1z M49.5,28.4c0,0,0,0.1,0,0.1c-1.8,0-3.6-0.3-5.3-0.9
	c-1.7-0.6-3.3-1.4-4.8-2.5c0,0.2,0,0.4,0,0.5c0,4.5,0,9.1,0,13.6c0,2.5-0.5,4.8-1.9,6.9c-2.7,4-6.5,6-11.3,5.8
	c-5.4-0.3-9.9-3.9-11.3-9c-1.8-6.4,2-13.2,8.4-15c1.6-0.5,3.3-0.6,5-0.4c0.1,0,0.3,0,0.4,0.1c0,2.2,0,4.3,0,6.5
	c-0.1,0-0.2,0-0.3-0.1c-3.9-1-7.5,1.9-7.4,5.9c0.1,2.9,2.5,5.4,5.5,5.6c2.9,0.2,5.6-1.9,6.2-4.7c0.1-0.5,0.1-1,0.1-1.5
	c0-8.9,0-17.7,0-26.6c0-0.2,0-0.4,0-0.6c2.2,0,4.3,0,6.5,0c0.1,5,3.5,8.9,8.4,9.9c0.5,0.1,1,0.1,1.4,0.1c0.2,0,0.3,0,0.3,0.3
	C49.5,24.4,49.5,26.4,49.5,28.4z"/>
</svg>
