<?xml version="1.0" encoding="utf-8"?>
<!-- Generator: Adobe Illustrator 25.2.1, SVG Export Plug-In . SVG Version: 6.00 Build 0)  -->
<svg version="1.1" id="Layer_1" xmlns="http://www.w3.org/2000/svg" xmlns:xlink="http://www.w3.org/1999/xlink" x="0px" y="0px"
	 viewBox="0 0 64 64" style="enable-background:new 0 0 64 64;" xml:space="preserve">
<style type="text/css">
	.st0{fill:#CACACB;}
</style>
<path class="st0" d="M37.8,31.7c-3.1-1.8-6.2-3.7-9.4-5.5c-0.1-0.1-0.2-0.2-0.3-0.1C28,26.1,28,26.3,28,26.4c0,1.9,0,3.7,0,5.6
	c0,0,0,0,0,0c0,1.8,0,3.7,0,5.5c0,0.1,0,0.2,0,0.3c0,0.2,0.1,0.2,0.2,0.1c0.1,0,0.2-0.1,0.3-0.2c3.1-1.8,6.2-3.6,9.3-5.4
	c0.1-0.1,0.4-0.1,0.4-0.3C38.2,31.8,37.9,31.8,37.8,31.7z"/>
<path class="st0" d="M58.9,5.1C53.8,0,46,0,32,0S10.2,0,5.1,5.1C0,10.2,0,18,0,32s0,21.8,5.1,26.9C10.2,64,18,64,32,64
	s21.8,0,26.9-5.1C64,53.8,64,46,64,32S64,10.2,58.9,5.1z M51.8,38.8c-0.1,1.1-0.3,2.3-0.7,3.3c-0.6,1.4-1.7,2.3-3.1,2.8
	c-1.7,0.6-3.4,0.7-5.1,0.8c-3.6,0.2-7.2,0.2-10.9,0.3c-4-0.1-8.2,0-12.3-0.4c-0.9-0.1-1.9-0.2-2.8-0.5c-2.5-0.6-3.9-2.2-4.4-4.7
	c-0.4-2-0.5-4-0.5-5.9c0-3-0.1-6,0.2-9c0.1-1.3,0.3-2.6,0.9-3.9c0.6-1.3,1.6-2.2,2.9-2.6c1.7-0.6,3.4-0.8,5.2-0.9
	c5.5-0.3,11-0.3,16.5-0.2c2.3,0,4.7,0,7,0.3c1.1,0.1,2.2,0.3,3.3,0.7c1.7,0.6,2.8,1.8,3.3,3.4c0.5,1.4,0.6,2.8,0.7,4.2
	C52.1,30.6,52.2,34.7,51.8,38.8z"/>
</svg>
