<?xml version="1.0" encoding="utf-8"?>
<!-- Generator: Adobe Illustrator 25.2.1, SVG Export Plug-In . SVG Version: 6.00 Build 0)  -->
<svg version="1.1" id="Layer_1" xmlns="http://www.w3.org/2000/svg" xmlns:xlink="http://www.w3.org/1999/xlink" x="0px" y="0px"
	 viewBox="0 0 1023.2 1023.2" style="enable-background:new 0 0 1023.2 1023.2;" xml:space="preserve">
<style type="text/css">
	.st0{fill:none;}
	.st1{fill:#F984B9;}
	.st2{fill:#F70000;}
</style>
<g>
	<path class="st0" d="M180.9,311.7c10.1,14.8,20.3,29.6,30.6,44.3c8.4,12.1,17,24.2,25.5,36.3c4.2,6.1,8.3,12.3,12.5,18.4
		c5,7.3,10.2,14.5,15.3,21.7c7.7,10.9,15.3,21.8,23,32.7c6.4,9,12.8,18,19.3,27c0.4,0.6,1.4,0.9,2.1,1.3c0.2-0.9,0.8-1.9,0.5-2.6
		c-2.1-5.5-4.3-10.9-6.5-16.4c-4.3-10.5-8.6-20.9-12.8-31.4c-4.1-10.2-8-20.4-12-30.5c-3.5-8.7-7.1-17.4-10.6-26.1
		c-3.2-8-6.2-16-9.5-24c-3.1-7.7-6.5-15.3-9.6-23c-2.2-5.4-4.3-10.9-6.4-16.4c-1.2-2.9-2.3-5.9-3.5-8.8c-1.2-3-1-3.4,2.3-3.4
		c30.1,0,60.1,0,90.2,0c26.4,0,52.7,0.1,79.1-0.1H180C180.3,310.9,180.6,311.2,180.9,311.7z"/>
	<ellipse class="st1" cx="71" cy="639.3" rx="71.1" ry="71.1"/>
	<path class="st1" d="M670.2,661.5c-6.1-8.6-12-17.3-18.1-25.9c-6.9-9.7-14-19.4-21-29.1c-4.4-6.2-8.7-12.5-13-18.7
		c-10.7-15.3-21.5-30.6-32.2-45.9c-4.2-6-8.4-12-12.6-18.1c-7.9-11.4-16-22.7-23.8-34.1c-6.1-8.9-12.1-17.9-18.1-26.8
		c-4.1-6-8.1-12-12.2-18c-4.8-7.1-9.6-14.3-14.5-21.4c-5.1-7.4-10.2-14.7-15.2-22.1c-5.5-8.1-10.8-16.3-16.3-24.4
		c-5-7.3-10.1-14.6-15-21.9c-4.1-6-8-12.1-12-18.1c-4.6-7-9.4-13.8-13.8-20.9c-2.1-3.5-4.5-5.2-8.3-5.6h-13.8
		c-26.4,0.2-52.7,0.1-79.1,0.1c-30.1,0-60.1,0-90.2,0c-3.3,0-3.5,0.4-2.3,3.4c1.2,2.9,2.4,5.9,3.5,8.8c2.2,5.5,4.2,11,6.4,16.4
		c3.2,7.7,6.5,15.3,9.6,23c3.2,8,6.3,16,9.5,24c3.5,8.7,7.1,17.4,10.6,26.1c4.1,10.2,8,20.4,12,30.5c4.2,10.5,8.5,21,12.8,31.4
		c2.2,5.5,4.5,10.9,6.5,16.4c0.3,0.7-0.3,1.7-0.5,2.6c-0.7-0.4-1.7-0.7-2.1-1.3c-6.5-9-12.9-18-19.3-27c-7.7-10.9-15.3-21.8-23-32.7
		c-5.1-7.2-10.2-14.5-15.3-21.7c-4.2-6.1-8.3-12.3-12.5-18.4c-8.5-12.1-17-24.2-25.5-36.3c-10.2-14.5-20.4-29.3-30.5-44.1
		c-0.3-0.4-0.6-0.8-0.9-1.1H1.4c0.2,0.5,0.5,1,0.7,1.4c6.3,9.6,12.6,19.3,19,28.8c6.4,9.6,13.1,19.1,19.5,28.7
		c8.1,12.1,16,24.4,24.1,36.6c6.2,9.3,12.5,18.5,18.7,27.7c4.5,6.6,9.2,13.2,13.6,19.9c3.9,5.8,7.5,11.8,11.4,17.5
		c6,8.9,12.1,17.6,18.1,26.5c8.2,12.1,16.3,24.2,24.5,36.3c5.2,7.7,10.7,15.2,16,22.9c5.2,7.5,10.3,15.1,15.4,22.6
		c7.4,10.6,14.8,21.2,22.2,31.8c6.1,8.9,12.2,17.8,18.4,26.6c6.2,8.9,12.7,17.6,18.9,26.5c4.3,6.1,8.3,12.3,12.5,18.4
		c6.3,9,12.6,18,19.1,26.8c0.8,1.1,2.7,2.1,4.1,2.2c8.5,0.4,17,0.6,25.6,0.7c48.9,0.1,97.8,0,146.6,0c1.5,0,3.1,0.3,4.6,0.2
		c1.4-0.1,2.7-0.5,4-0.8c-0.5-1.2-1-2.4-1.5-3.7c-0.1-0.2-0.4-0.4-0.5-0.6c-3-4.7-6.4-9.2-9-14.2c-6.5-12.1-12.7-24.4-18.9-36.7
		c-5.2-10.3-10.2-20.6-15.3-30.9c-5.3-10.7-10.7-21.3-16-32.1c-5.2-10.6-10.3-21.2-15.4-31.8c-6-12.4-12-24.8-17.9-37.2
		c-4.4-9.2-8.5-18.6-12.8-27.9c-5-10.8-10.1-21.5-14.9-32.3c-4.7-10.4-9.2-20.8-13.8-31.3c-1.1-2.6-2-5.2-2.8-7.9
		c-0.2-0.7,0.2-1.7,0.3-2.5c0.8,0.4,1.9,0.6,2.4,1.2c1.5,1.9,2.8,4,4.2,6c6.6,9.1,13.3,18.1,19.7,27.3c7.5,10.7,14.7,21.5,22.2,32.2
		c6.2,8.9,12.6,17.7,18.8,26.6c7.6,10.9,15.1,21.9,22.7,32.8c5.6,8,11.3,15.9,16.9,23.9c5.3,7.6,10.6,15.4,15.8,23
		c6,8.7,11.9,17.6,18,26.2c8.9,12.7,18,25.2,27,37.8c11.2,15.8,22.5,31.6,33.6,47.5c2.5,3.7,5.1,6.1,9.9,4.9c0.8-0.2,1.6,0,2.4,0
		c38.9,0,77.8,0,116.6,0c16.2,0,32.5,0.2,48.7,0.3c2.7,0,5.3,0,8.6,0c-6-8.2-11.8-16-17.5-23.8C683.6,679.8,676.8,670.7,670.2,661.5
		z"/>
	<path class="st1" d="M1016.9,442.5c-3.9-5.8-8-11.5-11.8-17.3c-4.4-6.6-8.6-13.4-13.1-20c-4.3-6.5-8.8-12.9-13.2-19.3
		c-4.9-7.1-9.8-14.2-14.7-21.2c-5.5-7.9-10.9-15.8-16.5-23.6c-6.5-9.2-13.2-18.2-19.7-27.4c-1.8-2.6-4-3.1-6.9-3.1
		c-30.6,0.1-61.2,0.1-91.9,0.1c-110.1,0-220.2,0-330.3,0c-0.9,0-1.9,0.1-3.5,0.3c2.5,3.8,4.5,7.2,6.7,10.5
		c7.1,10.5,14.2,21,21.3,31.5c7.9,11.8,15.6,23.6,23.5,35.3c10.3,15.5,20.5,30.9,30.9,46.3c9,13.4,18.1,26.7,27.2,40
		c4,5.9,7.9,11.9,11.9,17.8c5,7.4,10.2,14.7,15.3,22.1c6.1,8.9,11.9,18,18,26.8c8.8,12.8,17.7,25.4,26.6,38.1
		c8.4,12.1,16.7,24.3,25.1,36.5c7.8,11.3,15.6,22.7,23.5,33.9c8.8,12.5,17.8,24.9,26.7,37.4c5.6,7.8,11,15.8,16.6,23.5
		c0.8,1,2.5,1.8,3.8,1.9c2.3,0.2,4.7-0.4,7-0.4c21.7,0,43.4,0,65.1,0c36.1,0,72.2,0,108.6,0c-2.4-3.3-4.9-6.6-7.4-9.9
		c-8-11-15.9-22-23.8-33.1c-4.5-6.3-8.9-12.6-13.3-18.9c-3.1-4.4-6.1-8.8-9.2-13.1c-6.8-9.4-13.6-18.8-20.3-28.3
		c-5.2-7.4-10.2-14.9-15.4-22.4c-7.2-10.4-14.5-20.9-21.7-31.3c-8.7-12.6-17.4-25.2-26.2-37.8c-4.8-6.8-9.6-13.6-14.3-20.5
		c-8.9-12.9-17.8-25.8-26.7-38.7c-6.1-8.9-12.3-17.7-18.4-26.5c-6.2-9.1-12.2-18.2-18.4-27.3c-3-4.4-6.2-8.7-9.3-13.1
		c-7.8-11.4-15.6-22.9-23.4-34.3c-7-10.1-14.1-20.2-21.2-30.3c-0.4-0.6-0.7-1.7-0.4-2.4c0.2-0.5,1.4-0.7,2.1-0.7
		c2.5,0,5.1,0.2,7.6,0.2c20.4,0,40.7,0.1,61.1,0c2.5,0,4,0.7,5.2,3c1.4,2.6,3.1,5.1,4.8,7.6c5,7.3,10.1,14.5,15.1,21.9
		c5.6,8.3,11,16.6,16.6,24.9c3.7,5.6,7.6,11,11.4,16.6c5.4,8,10.6,16,15.9,23.9c6.2,9.3,12.4,18.5,18.4,27.9
		c1.5,2.3,3.1,3.1,5.8,3.1c57.5-0.1,115,0,172.5-0.1c0.8,0,1.7-0.2,3.1-0.3C1020.9,448.9,1019,445.6,1016.9,442.5z"/>
	<path class="st1" d="M918.5,495.1c-14.2,0-27.4,4.2-38.5,11.4L961.2,623c17.2-13,28.4-33.6,28.4-56.8
		C989.5,526.9,957.7,495.1,918.5,495.1z"/>
	<path class="st2" d="M410.3,310.6h13.8c-0.6-0.1-1.2-0.1-1.9-0.1C418.2,310.5,414.3,310.6,410.3,310.6z"/>
</g>
</svg>
